<?xml version="1.0" encoding="utf-8"?>
<!-- Generator: Adobe Illustrator 18.0.0, SVG Export Plug-In . SVG Version: 6.00 Build 0)  -->
<!DOCTYPE svg PUBLIC "-//W3C//DTD SVG 1.1//EN" "http://www.w3.org/Graphics/SVG/1.1/DTD/svg11.dtd">
<svg version="1.1" id="Vrstva_1" xmlns="http://www.w3.org/2000/svg" xmlns:xlink="http://www.w3.org/1999/xlink" x="0px" y="0px"
	 viewBox="0 0 500 500" enable-background="new 0 0 500 500" xml:space="preserve">
<g>
	<g>
		<g>
			<g>
				<path fill="#2E3192" d="M250.5,327.1C105.5,327.1,52,374.9,52,374.9c90.5,113.5,198.5,108.5,198.5,108.5s108.1,5.1,198.5-108.5
					C449,374.9,395.6,327.1,250.5,327.1z"/>
			</g>
		</g>
	</g>
</g>
<g>
	<g>
		<g>
			<g>
				<path fill="none" stroke="#000000" stroke-width="7.8565" stroke-miterlimit="10" d="M482.7,248.8
					c0,128.5-106.5,232.6-235,232.6S17.3,377.2,17.3,248.8S121.5,16,249.9,16S482.7,120.2,482.7,248.8z"/>
			</g>
		</g>
	</g>
</g>
<g>
	<g>
		<g>
			<g>
				<path fill="#BCB564" d="M296.6,391.5L296.6,391.5L296.6,391.5c-1-3.1-21.3-49.5-25.5-97.8c-8.5,4.2-18.1,6.5-28.3,6.5
					c-9.6,0-18.7-2.3-27-6c-4.4,48.1-24.5,94.3-25.5,97.4l0,0l0,0l0,0h0.2c2.3,1,24.4,13.5,52.9,13.5s50.7-12.5,52.9-13.5
					L296.6,391.5L296.6,391.5z"/>
			</g>
		</g>
	</g>
</g>
<g>
	<g>
		<g>
			<g>
				<path fill="#020201" d="M278.7,318.5"/>
			</g>
		</g>
	</g>
</g>
<g opacity="0.13">
	<g>
		<path d="M271,293.8c-8.5,4.2-18.1,6.5-28.3,6.5c-9.6,0-18.7-2.2-27-5.9c-0.7,7.4-1.7,14.5-2.9,21.7c17.7,2.7,38.7,3.5,61.2-0.3
			C272.7,308.4,271.7,301,271,293.8z"/>
	</g>
</g>
<g>
	<g>
		<g>
			<g>
				<path fill="#BCB564" d="M251.2,305.7h-16.8c-6.7,0-13.4-0.8-19.5-2.5c-29.7-7.6-51.5-32.3-51.5-61.6v-98.2
					c0-19.8,17.9-36,39.9-36h78.8c22.1,0,39.9,16.1,39.9,36v98.2C322.1,276.9,290.4,305.7,251.2,305.7z"/>
			</g>
		</g>
	</g>
</g>
<g>
	<g>
		<g>
			<path fill="#15562F" d="M205.5,171.4c-7.9,0-14.4,6.5-14.4,14.4s6.5,14.4,14.4,14.4c7.9,0,14.4-6.5,14.4-14.4
				S213.5,171.4,205.5,171.4z M203,188.1c-3.3,0-5.9-2.6-5.9-5.9s2.6-5.9,5.9-5.9s5.9,2.6,5.9,5.9S206.2,188.1,203,188.1z"/>
			<circle fill="#F4F4F4" cx="203" cy="182.2" r="5.9"/>
		</g>
	</g>
</g>
<g>
	<g>
		<g>
			<path fill="#15562F" d="M282.2,171.4c-7.9,0-14.4,6.5-14.4,14.4s6.5,14.4,14.4,14.4c7.9,0,14.4-6.5,14.4-14.4
				C296.5,177.8,290.2,171.4,282.2,171.4z M279.5,188.1c-3.3,0-5.9-2.6-5.9-5.9s2.6-5.9,5.9-5.9c3.3,0,5.9,2.6,5.9,5.9
				S282.8,188.1,279.5,188.1z"/>
			<circle fill="#F4F4F4" cx="279.5" cy="182.2" r="5.9"/>
		</g>
	</g>
</g>
<g>
	<g>
		<g>
			<g>
				<path fill="#F4F7F9" d="M216,239"/>
			</g>
		</g>
	</g>
</g>
<g>
	<g>
		<g>
			<g>
				<path fill="#F4F7F9" d="M206.5,244.7c0,0,17,59.5,68.7,0"/>
			</g>
		</g>
	</g>
</g>
<g>
	<g>
		<g>
			<g>
				<path fill="#BCB564" d="M318.5,178.1c0,0,4.4-30.8,13.5-23.6c0,0,9.2,1.6,9.2,25.1c0,9.9-6,28.9-6,28.9s-10.1,20.4-16.7,6.8"/>
			</g>
		</g>
	</g>
</g>
<g>
	<g>
		<g>
			<g>
				<path fill="#BCB564" d="M167.8,178.1c0,0-4.4-30.8-13.5-23.6c0,0-9.2,1.6-9.2,25.1c0,9.9,6,28.9,6,28.9s10.1,20.4,16.7,6.8"/>
			</g>
		</g>
	</g>
</g>
<path fill="#15562F" d="M166.1,186.3c0,0-28-59.5-23.5-73.6c0,0-5.7-37,5.1-38.5c10.8-1.6,25.2,5.8,31.5,17.5
	c0,0-9.5-27.1,11.7-25.5c21.3,1.6,112.6,53.2,157.3,43.5c0,0-128.1,49.4-145.1,6.5c0,0-27.4,16.6-26.5-7.9c0,0,23.5,40.9,13.3,49.4"
	/>
<path fill="none" stroke="#15562F" stroke-width="2.6299" stroke-miterlimit="10" d="M191.2,165.2c8.4-9.5,17.5-11.1,28.1,0"/>
<path fill="none" stroke="#15562F" stroke-width="2.6299" stroke-miterlimit="10" d="M267.5,165.2c8.4-9.5,17.5-11.1,28.1,0"/>
<path opacity="0.1" fill="#010201" enable-background="new    " d="M276.5,327.8c-2.5-10-2.7-14.1-4.1-24.8
	c29-8.2,50.4-32.5,50.4-61.3v-22.1c4.1,2.9,12.7-11,12.7-11s5.8-19,5.8-28.9c0-23.5-9-25.1-9-25.1c-4.4-3.5-8.6,1.7-9.6,8.2v-19.3
	c0-8.5-3.5-16.2-8.8-22.3c20.1-5.8,34.3-11.5,34.3-11.5c-27.3,5.8-71.3-11.1-107.9-25.5v396.7v-1.5c0,0,101.7,28.8,207.6-104.3
	C447.9,375.2,418.5,334.9,276.5,327.8z"/>
</svg>
